<svg width="1200" height="630" viewBox="0 0 1200 630" role="img" xmlns="http://www.w3.org/2000/svg">
  <title>グルメ・カフェ - 浦安ぽーたる OGP アイキャッチ画像</title>
  <desc>オレンジを基調としたグルメ・カフェカテゴリーのアイキャッチ画像。浦安市の地域情報サイト「浦安ぽーたる」のデザイン。</desc>

  <defs>
    <linearGradient id="bgGrad" x1="0" y1="0" x2="1" y2="1">
      <stop offset="0%" stop-color="#1A0D00"/>
      <stop offset="55%" stop-color="#3D1F00"/>
      <stop offset="100%" stop-color="#5A2E00"/>
    </linearGradient>
    <linearGradient id="waveGrad" x1="0" y1="0" x2="0" y2="1">
      <stop offset="0%" stop-color="#e67e22" stop-opacity="0.5"/>
      <stop offset="100%" stop-color="#1A0D00" stop-opacity="0.2"/>
    </linearGradient>
    <linearGradient id="accentBar" x1="0" y1="0" x2="1" y2="0">
      <stop offset="0%" stop-color="#FAD7A0"/>
      <stop offset="50%" stop-color="#e67e22"/>
      <stop offset="100%" stop-color="#935116"/>
    </linearGradient>
    <radialGradient id="circleGlow1" cx="50%" cy="50%" r="50%">
      <stop offset="0%" stop-color="#F0A050" stop-opacity="0.28"/>
      <stop offset="100%" stop-color="#3D1F00" stop-opacity="0"/>
    </radialGradient>
    <radialGradient id="circleGlow2" cx="50%" cy="50%" r="50%">
      <stop offset="0%" stop-color="#FAD7A0" stop-opacity="0.16"/>
      <stop offset="100%" stop-color="#3D1F00" stop-opacity="0"/>
    </radialGradient>
  </defs>

  <rect width="1200" height="630" fill="url(#bgGrad)"/>
  <ellipse cx="980" cy="120" rx="320" ry="280" fill="url(#circleGlow1)"/>
  <ellipse cx="180" cy="530" rx="220" ry="190" fill="url(#circleGlow2)"/>

  <circle cx="90" cy="80" r="2.5" fill="#F0A050" opacity="0.6"/>
  <circle cx="160" cy="45" r="1.5" fill="#FAD7A0" opacity="0.5"/>
  <circle cx="240" cy="110" r="2" fill="#F0A050" opacity="0.4"/>
  <circle cx="320" cy="60" r="1.5" fill="#FAD7A0" opacity="0.5"/>
  <circle cx="430" cy="90" r="2.5" fill="#F0A050" opacity="0.3"/>
  <circle cx="530" cy="40" r="2" fill="#FAD7A0" opacity="0.45"/>
  <circle cx="650" cy="75" r="1.5" fill="#F0A050" opacity="0.4"/>
  <circle cx="750" cy="35" r="2" fill="#FAD7A0" opacity="0.5"/>
  <circle cx="860" cy="55" r="2.5" fill="#F0A050" opacity="0.35"/>
  <circle cx="1050" cy="30" r="1.5" fill="#FAD7A0" opacity="0.5"/>
  <circle cx="1130" cy="80" r="2" fill="#F0A050" opacity="0.4"/>
  <circle cx="1170" cy="150" r="3" fill="#FAD7A0" opacity="0.3"/>
  <circle cx="70" cy="200" r="1.5" fill="#F0A050" opacity="0.4"/>
  <circle cx="110" cy="310" r="2" fill="#FAD7A0" opacity="0.35"/>
  <circle cx="55" cy="420" r="2.5" fill="#F0A050" opacity="0.45"/>
  <circle cx="1150" cy="280" r="2" fill="#FAD7A0" opacity="0.4"/>
  <circle cx="1100" cy="360" r="1.5" fill="#F0A050" opacity="0.35"/>
  <circle cx="1160" cy="450" r="2.5" fill="#FAD7A0" opacity="0.3"/>

  <path d="M0 520 Q150 480 300 510 Q450 540 600 505 Q750 470 900 500 Q1050 530 1200 495 L1200 630 L0 630 Z" fill="url(#waveGrad)"/>
  <path d="M0 560 Q200 530 380 555 Q560 580 740 548 Q920 516 1100 542 Q1150 548 1200 540 L1200 630 L0 630 Z" fill="#1A0D00" opacity="0.4"/>

  <g opacity="0.85">
    <circle cx="126" cy="255" r="52" fill="none" stroke="#F0A050" stroke-width="2"/>
    <circle cx="126" cy="255" r="40" fill="none" stroke="#F0A050" stroke-width="1" opacity="0.4"/>
    <line x1="108" y1="210" x2="108" y2="245" stroke="#FAD7A0" stroke-width="2.5" stroke-linecap="round" opacity="0.8"/>
    <line x1="103" y1="210" x2="103" y2="224" stroke="#FAD7A0" stroke-width="1.5" stroke-linecap="round" opacity="0.6"/>
    <line x1="108" y1="210" x2="108" y2="224" stroke="#FAD7A0" stroke-width="1.5" stroke-linecap="round" opacity="0.6"/>
    <line x1="113" y1="210" x2="113" y2="224" stroke="#FAD7A0" stroke-width="1.5" stroke-linecap="round" opacity="0.6"/>
    <line x1="108" y1="224" x2="108" y2="300" stroke="#FAD7A0" stroke-width="2.5" stroke-linecap="round" opacity="0.8"/>
    <line x1="144" y1="210" x2="144" y2="300" stroke="#FAD7A0" stroke-width="2.5" stroke-linecap="round" opacity="0.8"/>
    <path d="M144 210 Q150 218 144 230" fill="none" stroke="#FAD7A0" stroke-width="2" stroke-linecap="round" opacity="0.7"/>
  </g>

  <rect x="72" y="155" width="120" height="4" rx="2" fill="url(#accentBar)" opacity="0.8"/>

  <rect x="72" y="325" width="166" height="42" rx="21" fill="#e67e22" opacity="0.18"/>
  <rect x="72" y="325" width="166" height="42" rx="21" fill="none" stroke="#F0A050" stroke-width="1.5" opacity="0.6"/>
  <text x="155" y="352" font-family="'Noto Sans JP', 'Hiragino Sans', 'Yu Gothic', sans-serif" font-size="18" font-weight="700" fill="#FAD7A0" text-anchor="middle" letter-spacing="4">CATEGORY</text>

  <text x="630" y="305" font-family="'Noto Sans JP', 'Hiragino Sans', 'Yu Gothic', sans-serif" font-size="122" font-weight="900" fill="none" stroke="#935116" stroke-width="1.5" text-anchor="middle" opacity="0.25" letter-spacing="4">グルメ・カフェ</text>
  <text x="630" y="305" font-family="'Noto Sans JP', 'Hiragino Sans', 'Yu Gothic', sans-serif" font-size="122" font-weight="900" fill="#FEF9F0" text-anchor="middle" letter-spacing="4">グルメ・カフェ</text>

  <text x="630" y="385" font-family="'Helvetica Neue', 'Arial', sans-serif" font-size="36" font-weight="600" fill="#F0A050" text-anchor="middle" letter-spacing="10" opacity="0.9">GOURMET &amp; CAFE</text>

  <rect x="340" y="415" width="580" height="2" rx="1" fill="url(#accentBar)" opacity="0.7"/>

  <text x="1130" y="600" font-family="'Noto Sans JP', 'Hiragino Sans', 'Yu Gothic', sans-serif" font-size="22" font-weight="700" fill="#FAD7A0" text-anchor="end" letter-spacing="1" opacity="0.9">浦安ぽーたる</text>
  <rect x="940" y="605" width="190" height="1.5" rx="1" fill="#F0A050" opacity="0.5"/>
  <circle cx="1158" cy="590" r="3" fill="#FAD7A0" opacity="0.7"/>
  <circle cx="1167" cy="590" r="3" fill="#F0A050" opacity="0.5"/>

  <circle cx="72" cy="590" r="5" fill="none" stroke="#F0A050" stroke-width="1.5" opacity="0.4"/>
  <circle cx="90" cy="590" r="3" fill="none" stroke="#F0A050" stroke-width="1.5" opacity="0.3"/>
  <circle cx="104" cy="590" r="2" fill="none" stroke="#F0A050" stroke-width="1.5" opacity="0.2"/>

  <line x1="920" y1="72" x2="1128" y2="72" stroke="#F0A050" stroke-width="1" opacity="0.2"/>
  <line x1="960" y1="84" x2="1128" y2="84" stroke="#F0A050" stroke-width="1" opacity="0.15"/>
  <line x1="1000" y1="96" x2="1128" y2="96" stroke="#F0A050" stroke-width="1" opacity="0.1"/>
</svg>
