<svg width="1200" height="630" viewBox="0 0 1200 630" role="img" xmlns="http://www.w3.org/2000/svg">
  <title>スポーツ - 浦安ぽーたる OGP アイキャッチ画像</title>
  <desc>ティールを基調としたスポーツカテゴリーのアイキャッチ画像。浦安市の地域情報サイト「浦安ぽーたる」のデザイン。</desc>

  <defs>
    <linearGradient id="bgGrad" x1="0" y1="0" x2="1" y2="1">
      <stop offset="0%" stop-color="#061614"/>
      <stop offset="55%" stop-color="#0B2B27"/>
      <stop offset="100%" stop-color="#11403A"/>
    </linearGradient>
    <linearGradient id="waveGrad" x1="0" y1="0" x2="0" y2="1">
      <stop offset="0%" stop-color="#16a085" stop-opacity="0.5"/>
      <stop offset="100%" stop-color="#061614" stop-opacity="0.2"/>
    </linearGradient>
    <linearGradient id="accentBar" x1="0" y1="0" x2="1" y2="0">
      <stop offset="0%" stop-color="#A2D9CE"/>
      <stop offset="50%" stop-color="#16a085"/>
      <stop offset="100%" stop-color="#0E6655"/>
    </linearGradient>
    <radialGradient id="circleGlow1" cx="50%" cy="50%" r="50%">
      <stop offset="0%" stop-color="#1ABC9C" stop-opacity="0.28"/>
      <stop offset="100%" stop-color="#0B2B27" stop-opacity="0"/>
    </radialGradient>
    <radialGradient id="circleGlow2" cx="50%" cy="50%" r="50%">
      <stop offset="0%" stop-color="#A2D9CE" stop-opacity="0.16"/>
      <stop offset="100%" stop-color="#0B2B27" stop-opacity="0"/>
    </radialGradient>
  </defs>

  <rect width="1200" height="630" fill="url(#bgGrad)"/>
  <ellipse cx="980" cy="120" rx="320" ry="280" fill="url(#circleGlow1)"/>
  <ellipse cx="180" cy="530" rx="220" ry="190" fill="url(#circleGlow2)"/>

  <circle cx="90" cy="80" r="2.5" fill="#1ABC9C" opacity="0.6"/>
  <circle cx="160" cy="45" r="1.5" fill="#A2D9CE" opacity="0.5"/>
  <circle cx="240" cy="110" r="2" fill="#1ABC9C" opacity="0.4"/>
  <circle cx="320" cy="60" r="1.5" fill="#A2D9CE" opacity="0.5"/>
  <circle cx="430" cy="90" r="2.5" fill="#1ABC9C" opacity="0.3"/>
  <circle cx="530" cy="40" r="2" fill="#A2D9CE" opacity="0.45"/>
  <circle cx="650" cy="75" r="1.5" fill="#1ABC9C" opacity="0.4"/>
  <circle cx="750" cy="35" r="2" fill="#A2D9CE" opacity="0.5"/>
  <circle cx="860" cy="55" r="2.5" fill="#1ABC9C" opacity="0.35"/>
  <circle cx="1050" cy="30" r="1.5" fill="#A2D9CE" opacity="0.5"/>
  <circle cx="1130" cy="80" r="2" fill="#1ABC9C" opacity="0.4"/>
  <circle cx="1170" cy="150" r="3" fill="#A2D9CE" opacity="0.3"/>
  <circle cx="70" cy="200" r="1.5" fill="#1ABC9C" opacity="0.4"/>
  <circle cx="110" cy="310" r="2" fill="#A2D9CE" opacity="0.35"/>
  <circle cx="55" cy="420" r="2.5" fill="#1ABC9C" opacity="0.45"/>
  <circle cx="1150" cy="280" r="2" fill="#A2D9CE" opacity="0.4"/>
  <circle cx="1100" cy="360" r="1.5" fill="#1ABC9C" opacity="0.35"/>
  <circle cx="1160" cy="450" r="2.5" fill="#A2D9CE" opacity="0.3"/>

  <path d="M0 520 Q150 480 300 510 Q450 540 600 505 Q750 470 900 500 Q1050 530 1200 495 L1200 630 L0 630 Z" fill="url(#waveGrad)"/>
  <path d="M0 560 Q200 530 380 555 Q560 580 740 548 Q920 516 1100 542 Q1150 548 1200 540 L1200 630 L0 630 Z" fill="#061614" opacity="0.4"/>

  <g opacity="0.85">
    <path d="M96 190 Q72 195 72 220 Q72 248 96 255 L96 190 Z" fill="#16a085" opacity="0.5"/>
    <path d="M96 190 Q72 195 72 220 Q72 248 96 255 L96 190 Z" fill="none" stroke="#1ABC9C" stroke-width="1.5"/>
    <path d="M152 190 Q176 195 176 220 Q176 248 152 255 L152 190 Z" fill="#16a085" opacity="0.5"/>
    <path d="M152 190 Q176 195 176 220 Q176 248 152 255 L152 190 Z" fill="none" stroke="#1ABC9C" stroke-width="1.5"/>
    <path d="M96 185 Q124 175 152 185 L156 255 Q124 268 92 255 Z" fill="#16a085" opacity="0.6"/>
    <path d="M96 185 Q124 175 152 185 L156 255 Q124 268 92 255 Z" fill="none" stroke="#1ABC9C" stroke-width="1.5"/>
    <polygon points="124,208 127,218 137,218 129,224 132,234 124,228 116,234 119,224 111,218 121,218" fill="#A2D9CE" opacity="0.8"/>
    <rect x="116" y="267" width="16" height="14" rx="2" fill="#16a085" opacity="0.6"/>
    <rect x="116" y="267" width="16" height="14" rx="2" fill="none" stroke="#1ABC9C" stroke-width="1.5"/>
    <rect x="98" y="280" width="52" height="10" rx="4" fill="#16a085" opacity="0.6"/>
    <rect x="98" y="280" width="52" height="10" rx="4" fill="none" stroke="#1ABC9C" stroke-width="1.5"/>
  </g>

  <rect x="72" y="155" width="120" height="4" rx="2" fill="url(#accentBar)" opacity="0.8"/>

  <rect x="72" y="308" width="166" height="42" rx="21" fill="#16a085" opacity="0.18"/>
  <rect x="72" y="308" width="166" height="42" rx="21" fill="none" stroke="#1ABC9C" stroke-width="1.5" opacity="0.6"/>
  <text x="155" y="335" font-family="'Noto Sans JP', 'Hiragino Sans', 'Yu Gothic', sans-serif" font-size="18" font-weight="700" fill="#A2D9CE" text-anchor="middle" letter-spacing="4">CATEGORY</text>

  <text x="610" y="310" font-family="'Noto Sans JP', 'Hiragino Sans', 'Yu Gothic', sans-serif" font-size="155" font-weight="900" fill="none" stroke="#0E6655" stroke-width="1.5" text-anchor="middle" opacity="0.25" letter-spacing="8">スポーツ</text>
  <text x="610" y="310" font-family="'Noto Sans JP', 'Hiragino Sans', 'Yu Gothic', sans-serif" font-size="155" font-weight="900" fill="#EAFAF8" text-anchor="middle" letter-spacing="8">スポーツ</text>

  <text x="610" y="390" font-family="'Helvetica Neue', 'Arial', sans-serif" font-size="42" font-weight="600" fill="#1ABC9C" text-anchor="middle" letter-spacing="20" opacity="0.9">SPORTS</text>

  <rect x="390" y="420" width="440" height="2" rx="1" fill="url(#accentBar)" opacity="0.7"/>

  <text x="1130" y="600" font-family="'Noto Sans JP', 'Hiragino Sans', 'Yu Gothic', sans-serif" font-size="22" font-weight="700" fill="#A2D9CE" text-anchor="end" letter-spacing="1" opacity="0.9">浦安ぽーたる</text>
  <rect x="940" y="605" width="190" height="1.5" rx="1" fill="#1ABC9C" opacity="0.5"/>
  <circle cx="1158" cy="590" r="3" fill="#A2D9CE" opacity="0.7"/>
  <circle cx="1167" cy="590" r="3" fill="#1ABC9C" opacity="0.5"/>

  <circle cx="72" cy="590" r="5" fill="none" stroke="#1ABC9C" stroke-width="1.5" opacity="0.4"/>
  <circle cx="90" cy="590" r="3" fill="none" stroke="#1ABC9C" stroke-width="1.5" opacity="0.3"/>
  <circle cx="104" cy="590" r="2" fill="none" stroke="#1ABC9C" stroke-width="1.5" opacity="0.2"/>

  <line x1="920" y1="72" x2="1128" y2="72" stroke="#1ABC9C" stroke-width="1" opacity="0.2"/>
  <line x1="960" y1="84" x2="1128" y2="84" stroke="#1ABC9C" stroke-width="1" opacity="0.15"/>
  <line x1="1000" y1="96" x2="1128" y2="96" stroke="#1ABC9C" stroke-width="1" opacity="0.1"/>
</svg>
