<svg width="1200" height="630" viewBox="0 0 1200 630" role="img" xmlns="http://www.w3.org/2000/svg">
  <title>開店 - 浦安ぽーたる OGP アイキャッチ画像</title>
  <desc>赤を基調とした開店カテゴリーのアイキャッチ画像。浦安市の地域情報サイト「浦安ぽーたる」のデザイン。</desc>

  <defs>
    <linearGradient id="bgGrad" x1="0" y1="0" x2="1" y2="1">
      <stop offset="0%" stop-color="#1C0A08"/>
      <stop offset="55%" stop-color="#3B1210"/>
      <stop offset="100%" stop-color="#541A17"/>
    </linearGradient>
    <linearGradient id="waveGrad" x1="0" y1="0" x2="0" y2="1">
      <stop offset="0%" stop-color="#e74c3c" stop-opacity="0.5"/>
      <stop offset="100%" stop-color="#1C0A08" stop-opacity="0.2"/>
    </linearGradient>
    <linearGradient id="accentBar" x1="0" y1="0" x2="1" y2="0">
      <stop offset="0%" stop-color="#F1948A"/>
      <stop offset="50%" stop-color="#e74c3c"/>
      <stop offset="100%" stop-color="#922B21"/>
    </linearGradient>
    <radialGradient id="circleGlow1" cx="50%" cy="50%" r="50%">
      <stop offset="0%" stop-color="#EC7063" stop-opacity="0.28"/>
      <stop offset="100%" stop-color="#3B1210" stop-opacity="0"/>
    </radialGradient>
    <radialGradient id="circleGlow2" cx="50%" cy="50%" r="50%">
      <stop offset="0%" stop-color="#F1948A" stop-opacity="0.16"/>
      <stop offset="100%" stop-color="#3B1210" stop-opacity="0"/>
    </radialGradient>
  </defs>

  <rect width="1200" height="630" fill="url(#bgGrad)"/>
  <ellipse cx="980" cy="120" rx="320" ry="280" fill="url(#circleGlow1)"/>
  <ellipse cx="180" cy="530" rx="220" ry="190" fill="url(#circleGlow2)"/>

  <circle cx="90" cy="80" r="2.5" fill="#EC7063" opacity="0.6"/>
  <circle cx="160" cy="45" r="1.5" fill="#F1948A" opacity="0.5"/>
  <circle cx="240" cy="110" r="2" fill="#EC7063" opacity="0.4"/>
  <circle cx="320" cy="60" r="1.5" fill="#F1948A" opacity="0.5"/>
  <circle cx="430" cy="90" r="2.5" fill="#EC7063" opacity="0.3"/>
  <circle cx="530" cy="40" r="2" fill="#F1948A" opacity="0.45"/>
  <circle cx="650" cy="75" r="1.5" fill="#EC7063" opacity="0.4"/>
  <circle cx="750" cy="35" r="2" fill="#F1948A" opacity="0.5"/>
  <circle cx="860" cy="55" r="2.5" fill="#EC7063" opacity="0.35"/>
  <circle cx="1050" cy="30" r="1.5" fill="#F1948A" opacity="0.5"/>
  <circle cx="1130" cy="80" r="2" fill="#EC7063" opacity="0.4"/>
  <circle cx="1170" cy="150" r="3" fill="#F1948A" opacity="0.3"/>
  <circle cx="70" cy="200" r="1.5" fill="#EC7063" opacity="0.4"/>
  <circle cx="110" cy="310" r="2" fill="#F1948A" opacity="0.35"/>
  <circle cx="55" cy="420" r="2.5" fill="#EC7063" opacity="0.45"/>
  <circle cx="1150" cy="280" r="2" fill="#F1948A" opacity="0.4"/>
  <circle cx="1100" cy="360" r="1.5" fill="#EC7063" opacity="0.35"/>
  <circle cx="1160" cy="450" r="2.5" fill="#F1948A" opacity="0.3"/>

  <path d="M0 520 Q150 480 300 510 Q450 540 600 505 Q750 470 900 500 Q1050 530 1200 495 L1200 630 L0 630 Z" fill="url(#waveGrad)"/>
  <path d="M0 560 Q200 530 380 555 Q560 580 740 548 Q920 516 1100 542 Q1150 548 1200 540 L1200 630 L0 630 Z" fill="#1C0A08" opacity="0.4"/>

  <g opacity="0.85">
    <rect x="72" y="185" width="90" height="115" rx="6" fill="none" stroke="#EC7063" stroke-width="2"/>
    <rect x="82" y="195" width="70" height="95" rx="4" fill="#e74c3c" opacity="0.5"/>
    <circle cx="142" cy="248" r="5" fill="#F1948A" opacity="0.9"/>
    <rect x="91" y="204" width="52" height="30" rx="3" fill="#EC7063" opacity="0.2"/>
    <rect x="91" y="204" width="52" height="30" rx="3" fill="none" stroke="#EC7063" stroke-width="1" opacity="0.5"/>
    <line x1="117" y1="204" x2="117" y2="234" stroke="#EC7063" stroke-width="1" opacity="0.4"/>
    <line x1="91" y1="219" x2="143" y2="219" stroke="#EC7063" stroke-width="1" opacity="0.4"/>
    <rect x="62" y="298" width="110" height="6" rx="3" fill="#EC7063" opacity="0.3"/>
  </g>

  <rect x="72" y="155" width="120" height="4" rx="2" fill="url(#accentBar)" opacity="0.8"/>

  <rect x="72" y="322" width="166" height="42" rx="21" fill="#e74c3c" opacity="0.18"/>
  <rect x="72" y="322" width="166" height="42" rx="21" fill="none" stroke="#EC7063" stroke-width="1.5" opacity="0.6"/>
  <text x="155" y="349" font-family="'Noto Sans JP', 'Hiragino Sans', 'Yu Gothic', sans-serif" font-size="18" font-weight="700" fill="#F1948A" text-anchor="middle" letter-spacing="4">CATEGORY</text>

  <text x="620" y="310" font-family="'Noto Sans JP', 'Hiragino Sans', 'Yu Gothic', sans-serif" font-size="158" font-weight="900" fill="none" stroke="#922B21" stroke-width="1.5" text-anchor="middle" opacity="0.25" letter-spacing="8">開店</text>
  <text x="620" y="310" font-family="'Noto Sans JP', 'Hiragino Sans', 'Yu Gothic', sans-serif" font-size="158" font-weight="900" fill="#FEF5F4" text-anchor="middle" letter-spacing="8">開店</text>

  <text x="620" y="390" font-family="'Helvetica Neue', 'Arial', sans-serif" font-size="38" font-weight="600" fill="#EC7063" text-anchor="middle" letter-spacing="14" opacity="0.9">NEW OPEN</text>

  <rect x="390" y="420" width="460" height="2" rx="1" fill="url(#accentBar)" opacity="0.7"/>

  <text x="1130" y="600" font-family="'Noto Sans JP', 'Hiragino Sans', 'Yu Gothic', sans-serif" font-size="22" font-weight="700" fill="#F1948A" text-anchor="end" letter-spacing="1" opacity="0.9">浦安ぽーたる</text>
  <rect x="940" y="605" width="190" height="1.5" rx="1" fill="#EC7063" opacity="0.5"/>
  <circle cx="1158" cy="590" r="3" fill="#F1948A" opacity="0.7"/>
  <circle cx="1167" cy="590" r="3" fill="#EC7063" opacity="0.5"/>

  <circle cx="72" cy="590" r="5" fill="none" stroke="#EC7063" stroke-width="1.5" opacity="0.4"/>
  <circle cx="90" cy="590" r="3" fill="none" stroke="#EC7063" stroke-width="1.5" opacity="0.3"/>
  <circle cx="104" cy="590" r="2" fill="none" stroke="#EC7063" stroke-width="1.5" opacity="0.2"/>

  <line x1="920" y1="72" x2="1128" y2="72" stroke="#EC7063" stroke-width="1" opacity="0.2"/>
  <line x1="960" y1="84" x2="1128" y2="84" stroke="#EC7063" stroke-width="1" opacity="0.15"/>
  <line x1="1000" y1="96" x2="1128" y2="96" stroke="#EC7063" stroke-width="1" opacity="0.1"/>
</svg>
