<svg width="1200" height="630" viewBox="0 0 1200 630" role="img" xmlns="http://www.w3.org/2000/svg">
  <title>お知らせ - 浦安ぽーたる OGP アイキャッチ画像</title>
  <desc>グレーを基調としたお知らせカテゴリーのアイキャッチ画像。浦安市の地域情報サイト「浦安ぽーたる」のデザイン。</desc>

  <defs>
    <linearGradient id="bgGrad" x1="0" y1="0" x2="1" y2="1">
      <stop offset="0%" stop-color="#111314"/>
      <stop offset="55%" stop-color="#232A2B"/>
      <stop offset="100%" stop-color="#313D3E"/>
    </linearGradient>
    <linearGradient id="waveGrad" x1="0" y1="0" x2="0" y2="1">
      <stop offset="0%" stop-color="#7f8c8d" stop-opacity="0.5"/>
      <stop offset="100%" stop-color="#111314" stop-opacity="0.2"/>
    </linearGradient>
    <linearGradient id="accentBar" x1="0" y1="0" x2="1" y2="0">
      <stop offset="0%" stop-color="#D5DBDB"/>
      <stop offset="50%" stop-color="#7f8c8d"/>
      <stop offset="100%" stop-color="#4D5B5C"/>
    </linearGradient>
    <radialGradient id="circleGlow1" cx="50%" cy="50%" r="50%">
      <stop offset="0%" stop-color="#ABB2B9" stop-opacity="0.28"/>
      <stop offset="100%" stop-color="#232A2B" stop-opacity="0"/>
    </radialGradient>
    <radialGradient id="circleGlow2" cx="50%" cy="50%" r="50%">
      <stop offset="0%" stop-color="#D5DBDB" stop-opacity="0.16"/>
      <stop offset="100%" stop-color="#232A2B" stop-opacity="0"/>
    </radialGradient>
  </defs>

  <rect width="1200" height="630" fill="url(#bgGrad)"/>
  <ellipse cx="980" cy="120" rx="320" ry="280" fill="url(#circleGlow1)"/>
  <ellipse cx="180" cy="530" rx="220" ry="190" fill="url(#circleGlow2)"/>

  <circle cx="90" cy="80" r="2.5" fill="#ABB2B9" opacity="0.6"/>
  <circle cx="160" cy="45" r="1.5" fill="#D5DBDB" opacity="0.5"/>
  <circle cx="240" cy="110" r="2" fill="#ABB2B9" opacity="0.4"/>
  <circle cx="320" cy="60" r="1.5" fill="#D5DBDB" opacity="0.5"/>
  <circle cx="430" cy="90" r="2.5" fill="#ABB2B9" opacity="0.3"/>
  <circle cx="530" cy="40" r="2" fill="#D5DBDB" opacity="0.45"/>
  <circle cx="650" cy="75" r="1.5" fill="#ABB2B9" opacity="0.4"/>
  <circle cx="750" cy="35" r="2" fill="#D5DBDB" opacity="0.5"/>
  <circle cx="860" cy="55" r="2.5" fill="#ABB2B9" opacity="0.35"/>
  <circle cx="1050" cy="30" r="1.5" fill="#D5DBDB" opacity="0.5"/>
  <circle cx="1130" cy="80" r="2" fill="#ABB2B9" opacity="0.4"/>
  <circle cx="1170" cy="150" r="3" fill="#D5DBDB" opacity="0.3"/>
  <circle cx="70" cy="200" r="1.5" fill="#ABB2B9" opacity="0.4"/>
  <circle cx="110" cy="310" r="2" fill="#D5DBDB" opacity="0.35"/>
  <circle cx="55" cy="420" r="2.5" fill="#ABB2B9" opacity="0.45"/>
  <circle cx="1150" cy="280" r="2" fill="#D5DBDB" opacity="0.4"/>
  <circle cx="1100" cy="360" r="1.5" fill="#ABB2B9" opacity="0.35"/>
  <circle cx="1160" cy="450" r="2.5" fill="#D5DBDB" opacity="0.3"/>

  <path d="M0 520 Q150 480 300 510 Q450 540 600 505 Q750 470 900 500 Q1050 530 1200 495 L1200 630 L0 630 Z" fill="url(#waveGrad)"/>
  <path d="M0 560 Q200 530 380 555 Q560 580 740 548 Q920 516 1100 542 Q1150 548 1200 540 L1200 630 L0 630 Z" fill="#111314" opacity="0.4"/>

  <g opacity="0.85">
    <path d="M124 183 Q100 183 88 200 Q76 217 76 240 L76 258 L172 258 L172 240 Q172 217 160 200 Q148 183 124 183 Z" fill="#7f8c8d" opacity="0.55"/>
    <path d="M124 183 Q100 183 88 200 Q76 217 76 240 L76 258 L172 258 L172 240 Q172 217 160 200 Q148 183 124 183 Z" fill="none" stroke="#ABB2B9" stroke-width="2"/>
    <rect x="70" y="255" width="108" height="10" rx="5" fill="#7f8c8d" opacity="0.6"/>
    <rect x="70" y="255" width="108" height="10" rx="5" fill="none" stroke="#ABB2B9" stroke-width="1.5"/>
    <rect x="118" y="172" width="12" height="14" rx="6" fill="#ABB2B9" opacity="0.8"/>
    <line x1="124" y1="263" x2="124" y2="276" stroke="#ABB2B9" stroke-width="2.5" stroke-linecap="round" opacity="0.7"/>
    <circle cx="124" cy="280" r="6" fill="#ABB2B9" opacity="0.7"/>
    <path d="M68 210 Q58 228 68 246" fill="none" stroke="#D5DBDB" stroke-width="2" stroke-linecap="round" opacity="0.4"/>
    <path d="M58 202 Q44 228 58 254" fill="none" stroke="#D5DBDB" stroke-width="1.5" stroke-linecap="round" opacity="0.25"/>
    <path d="M180 210 Q190 228 180 246" fill="none" stroke="#D5DBDB" stroke-width="2" stroke-linecap="round" opacity="0.4"/>
    <path d="M190 202 Q204 228 190 254" fill="none" stroke="#D5DBDB" stroke-width="1.5" stroke-linecap="round" opacity="0.25"/>
  </g>

  <rect x="72" y="155" width="120" height="4" rx="2" fill="url(#accentBar)" opacity="0.8"/>

  <rect x="72" y="308" width="166" height="42" rx="21" fill="#7f8c8d" opacity="0.18"/>
  <rect x="72" y="308" width="166" height="42" rx="21" fill="none" stroke="#ABB2B9" stroke-width="1.5" opacity="0.6"/>
  <text x="155" y="335" font-family="'Noto Sans JP', 'Hiragino Sans', 'Yu Gothic', sans-serif" font-size="18" font-weight="700" fill="#D5DBDB" text-anchor="middle" letter-spacing="4">CATEGORY</text>

  <text x="610" y="310" font-family="'Noto Sans JP', 'Hiragino Sans', 'Yu Gothic', sans-serif" font-size="155" font-weight="900" fill="none" stroke="#4D5B5C" stroke-width="1.5" text-anchor="middle" opacity="0.25" letter-spacing="8">お知らせ</text>
  <text x="610" y="310" font-family="'Noto Sans JP', 'Hiragino Sans', 'Yu Gothic', sans-serif" font-size="155" font-weight="900" fill="#F2F3F4" text-anchor="middle" letter-spacing="8">お知らせ</text>

  <text x="610" y="390" font-family="'Helvetica Neue', 'Arial', sans-serif" font-size="36" font-weight="600" fill="#ABB2B9" text-anchor="middle" letter-spacing="12" opacity="0.9">INFORMATION</text>

  <rect x="330" y="420" width="560" height="2" rx="1" fill="url(#accentBar)" opacity="0.7"/>

  <text x="1130" y="600" font-family="'Noto Sans JP', 'Hiragino Sans', 'Yu Gothic', sans-serif" font-size="22" font-weight="700" fill="#D5DBDB" text-anchor="end" letter-spacing="1" opacity="0.9">浦安ぽーたる</text>
  <rect x="940" y="605" width="190" height="1.5" rx="1" fill="#ABB2B9" opacity="0.5"/>
  <circle cx="1158" cy="590" r="3" fill="#D5DBDB" opacity="0.7"/>
  <circle cx="1167" cy="590" r="3" fill="#ABB2B9" opacity="0.5"/>

  <circle cx="72" cy="590" r="5" fill="none" stroke="#ABB2B9" stroke-width="1.5" opacity="0.4"/>
  <circle cx="90" cy="590" r="3" fill="none" stroke="#ABB2B9" stroke-width="1.5" opacity="0.3"/>
  <circle cx="104" cy="590" r="2" fill="none" stroke="#ABB2B9" stroke-width="1.5" opacity="0.2"/>

  <line x1="920" y1="72" x2="1128" y2="72" stroke="#ABB2B9" stroke-width="1" opacity="0.2"/>
  <line x1="960" y1="84" x2="1128" y2="84" stroke="#ABB2B9" stroke-width="1" opacity="0.15"/>
  <line x1="1000" y1="96" x2="1128" y2="96" stroke="#ABB2B9" stroke-width="1" opacity="0.1"/>
</svg>
